<svg width="60" height="60" viewBox="0 0 60 60" fill="none" xmlns="http://www.w3.org/2000/svg">
<path d="M31.4393 38.5607C32.0251 39.1464 32.9749 39.1464 33.5607 38.5607C34.1464 37.9749 34.1464 37.0251 33.5607 36.4393L31.4393 38.5607ZM25 30L23.9393 28.9393C23.3536 29.5251 23.3536 30.4749 23.9393 31.0607L25 30ZM33.5607 23.5607C34.1464 22.9749 34.1464 22.0251 33.5607 21.4393C32.9749 20.8536 32.0251 20.8536 31.4393 21.4393L33.5607 23.5607ZM54 30C54 16.7452 43.2548 6 30 6V9C41.598 9 51 18.402 51 30H54ZM30 6C16.7452 6 6 16.7452 6 30H9C9 18.402 18.402 9 30 9V6ZM6 30C6 43.2548 16.7452 54 30 54V51C18.402 51 9 41.598 9 30H6ZM30 54C43.2548 54 54 43.2548 54 30H51C51 41.598 41.598 51 30 51V54ZM33.5607 36.4393L26.0607 28.9393L23.9393 31.0607L31.4393 38.5607L33.5607 36.4393ZM26.0607 31.0607L33.5607 23.5607L31.4393 21.4393L23.9393 28.9393L26.0607 31.0607Z" fill="black"/>
</svg>
