<svg width="60" height="60" viewBox="0 0 60 60" fill="none" xmlns="http://www.w3.org/2000/svg">
<path d="M28.5607 21.4393C27.9749 20.8536 27.0251 20.8536 26.4393 21.4393C25.8536 22.0251 25.8536 22.9749 26.4393 23.5607L28.5607 21.4393ZM35 30L36.0607 31.0607C36.6464 30.4749 36.6464 29.5251 36.0607 28.9393L35 30ZM26.4393 36.4393C25.8536 37.0251 25.8536 37.9749 26.4393 38.5607C27.0251 39.1464 27.9749 39.1464 28.5607 38.5607L26.4393 36.4393ZM54 30C54 16.7452 43.2548 6 30 6V9C41.598 9 51 18.402 51 30H54ZM30 6C16.7452 6 6 16.7452 6 30H9C9 18.402 18.402 9 30 9V6ZM6 30C6 43.2548 16.7452 54 30 54V51C18.402 51 9 41.598 9 30H6ZM30 54C43.2548 54 54 43.2548 54 30H51C51 41.598 41.598 51 30 51V54ZM26.4393 23.5607L33.9393 31.0607L36.0607 28.9393L28.5607 21.4393L26.4393 23.5607ZM33.9393 28.9393L26.4393 36.4393L28.5607 38.5607L36.0607 31.0607L33.9393 28.9393Z" fill="black"/>
</svg>
