<svg width="38" height="38" viewBox="0 0 38 38" fill="none" xmlns="http://www.w3.org/2000/svg">
<path d="M8.86605 31.5407L8.24135 30.7598L8.24135 30.7598L8.86605 31.5407ZM5.09515 8.06256L5.98615 8.51655L5.09515 8.06256ZM6.47868 6.67864L6.93267 7.56965L6.47868 6.67864ZM6.33488 33.1225L6.3338 32.1225L6.33488 33.1225ZM5.09589 32.527L5.87743 31.9031L5.87743 31.9031L5.09589 32.527ZM13.1406 28.5648L13.3416 29.5444L13.3416 29.5444L13.1406 28.5648ZM12.3369 28.8469L11.8819 27.9564L11.8819 27.9564L12.3369 28.8469ZM32.9052 26.7712L32.0142 26.3172L32.9052 26.7712ZM31.5207 28.155L31.0667 27.264L31.5207 28.155ZM32.9052 8.06256L32.0142 8.51655L32.0142 8.51655L32.9052 8.06256ZM31.5207 6.67864L31.9747 5.78764L31.9747 5.78764L31.5207 6.67864ZM32.25 11.4001V23.4334H34.25V11.4001H32.25ZM28.1834 27.5002H14.4441V29.5002H28.1834V27.5002ZM10.6543 28.8295L8.24135 30.7598L9.49074 32.3216L11.9037 30.3912L10.6543 28.8295ZM5.75 29.5625V11.4001H3.75V29.5625H5.75ZM9.81698 7.3335H28.1836V5.3335H9.81698V7.3335ZM5.75 11.4001C5.75 10.4968 5.75078 9.87957 5.78982 9.40172C5.82791 8.93555 5.89738 8.69079 5.98615 8.51655L4.20414 7.60857C3.94777 8.11172 3.84466 8.64897 3.79646 9.23884C3.74922 9.81703 3.75 10.5298 3.75 11.4001H5.75ZM9.81698 5.3335C8.94672 5.3335 8.23374 5.33272 7.65538 5.37996C7.06541 5.42815 6.52791 5.53123 6.02469 5.78764L6.93267 7.56965C7.10684 7.48091 7.35174 7.41142 7.81819 7.37332C8.29625 7.33427 8.91373 7.3335 9.81698 7.3335V5.3335ZM5.98615 8.51655C6.19401 8.10861 6.52524 7.77724 6.93267 7.56965L6.02469 5.78764C5.24042 6.18724 4.60348 6.82482 4.20414 7.60857L5.98615 8.51655ZM8.24135 30.7598C7.56701 31.2993 7.11462 31.6599 6.76282 31.8925C6.39553 32.1353 6.30159 32.1226 6.3338 32.1225L6.33596 34.1225C6.92261 34.1219 7.43546 33.8453 7.86574 33.5609C8.31151 33.2662 8.84748 32.8362 9.49074 32.3216L8.24135 30.7598ZM3.75 29.5625C3.75 30.3862 3.74901 31.0733 3.79734 31.6055C3.84399 32.1191 3.94835 32.6923 4.31435 33.1508L5.87743 31.9031C5.89754 31.9283 5.82896 31.863 5.78914 31.4245C5.75099 31.0046 5.75 30.4261 5.75 29.5625H3.75ZM6.3338 32.1225C6.15626 32.1227 5.98833 32.042 5.87743 31.9031L4.31435 33.1508C4.80508 33.7656 5.54912 34.1234 6.33596 34.1225L6.3338 32.1225ZM14.4441 27.5002C13.8254 27.5002 13.3771 27.4954 12.9395 27.5852L13.3416 29.5444C13.5342 29.5049 13.7452 29.5002 14.4441 29.5002V27.5002ZM11.9037 30.3912C12.4492 29.9548 12.6167 29.8269 12.7918 29.7374L11.8819 27.9564C11.4842 28.1596 11.1375 28.4429 10.6543 28.8295L11.9037 30.3912ZM12.9395 27.5852C12.5714 27.6608 12.2159 27.7858 11.8819 27.9564L12.7918 29.7374C12.966 29.6484 13.1507 29.5836 13.3416 29.5444L12.9395 27.5852ZM32.25 23.4334C32.25 24.3368 32.2493 24.9541 32.2103 25.4321C32.1723 25.8984 32.1029 26.1431 32.0142 26.3172L33.7962 27.2252C34.0526 26.7219 34.1556 26.1845 34.2037 25.5946C34.2509 25.0164 34.25 24.3036 34.25 23.4334H32.25ZM28.1834 29.5002C29.0537 29.5002 29.7664 29.5009 30.3446 29.4537C30.9344 29.4055 31.4715 29.3023 31.9747 29.046L31.0667 27.264C30.8924 27.3528 30.6477 27.4222 30.1816 27.4603C29.7039 27.4994 29.0867 27.5002 28.1834 27.5002V29.5002ZM32.0142 26.3172C31.8067 26.7244 31.4749 27.056 31.0667 27.264L31.9747 29.046C32.7581 28.6468 33.3965 28.0097 33.7962 27.2252L32.0142 26.3172ZM34.25 11.4001C34.25 10.5299 34.2509 9.81713 34.2037 9.239C34.1556 8.64918 34.0526 8.11183 33.7962 7.60857L32.0142 8.51655C32.1029 8.69067 32.1723 8.93534 32.2103 9.40156C32.2493 9.87947 32.25 10.4967 32.25 11.4001H34.25ZM28.1836 7.3335C29.0869 7.3335 29.704 7.33427 30.1817 7.37332C30.6477 7.4114 30.8924 7.48085 31.0667 7.56965L31.9747 5.78764C31.4715 5.53129 30.9345 5.42817 30.3447 5.37996C29.7666 5.33272 29.0539 5.3335 28.1836 5.3335V7.3335ZM33.7962 7.60857C33.3965 6.82415 32.7583 6.1869 31.9747 5.78764L31.0667 7.56965C31.4748 7.77758 31.8067 8.10927 32.0142 8.51655L33.7962 7.60857Z" fill="white"/>
</svg>
